<?xml version="1.0" encoding="UTF-8"?>
<svg version="1.1" xmlns="http://www.w3.org/2000/svg" width="894" height="900">
<path d="M0 0 C0.85980469 0.46277344 1.71960938 0.92554688 2.60546875 1.40234375 C23.92464228 13.9846554 43.54915578 35.09219363 58 55 C58.75796875 55.97453125 59.5159375 56.9490625 60.296875 57.953125 C66.48584983 65.93476841 71.83505608 74.33532354 77 83 C77.4139502 83.68803711 77.82790039 84.37607422 78.25439453 85.08496094 C118.81987736 153.09040108 131.89278715 261.61780854 113.11157227 338.35864258 C104.15257501 372.83364731 85.44885426 404.26436393 61 430 C59.868134 431.30658357 58.74269848 432.61877662 57.625 433.9375 C54.51361554 437.51559213 51.21807174 440.89016719 47.875 444.25 C47.37178223 444.75781006 46.86856445 445.26562012 46.35009766 445.78881836 C38.1049799 454 38.1049799 454 35 454 C35.98226562 455.41925781 35.98226562 455.41925781 36.984375 456.8671875 C53.45554857 480.71355903 69.23782202 504.92396343 83.80175781 529.98901367 C84.81605335 531.69128595 85.90083579 533.35125369 87 535 C88.52183555 533.33424841 90.0424085 531.66734329 91.5625 530 C92.02213135 529.49597656 92.4817627 528.99195313 92.95532227 528.47265625 C95.49239705 525.68316049 97.98862444 522.86697627 100.4375 520 C107.41901987 512.00476998 114.96851657 504.76444964 123.28125 498.16796875 C125.03806497 496.76706026 126.76975233 495.33377448 128.46875 493.86328125 C160.04513961 466.72123031 201.3448352 451.52017672 242.8125 451.625 C244.03030151 451.62581573 244.03030151 451.62581573 245.27270508 451.62664795 C297.05040699 451.78548305 341.64207939 472.54193629 378.4375 508.1875 C422.06946726 552.37254854 444.92618459 621.71093487 445.203125 682.94921875 C445.20882507 683.96434036 445.21452515 684.97946198 445.22039795 686.02534485 C445.22978331 688.1657306 445.23635596 690.30613039 445.24023438 692.4465332 C445.24984046 695.63455313 445.28088561 698.82189904 445.3125 702.00976562 C445.40799179 720.40580589 444.19028199 738.97609274 439.375 756.8125 C438.99649902 758.26269531 438.99649902 758.26269531 438.61035156 759.7421875 C433.05510539 780.4306905 425.68220098 800.43275573 417 820 C416.62375488 820.85029785 416.24750977 821.7005957 415.85986328 822.57666016 C406.04812876 844.52635499 393.65008484 865.58937501 378.38220215 884.21349525 C376.9045133 886.07140074 376.9045133 886.07140074 375.40393066 888.46916771 C370.59199571 895.44241096 370.59199571 895.44241096 366.40310669 896.90954971 C363.34416587 897.22885246 360.42552805 897.23899954 357.3515625 897.13525391 C355.63805855 897.13744431 355.63805855 897.13744431 353.88993835 897.13967896 C350.13299195 897.13273949 346.38107395 897.05510163 342.625 896.9765625 C340.01329254 896.95790123 337.40154996 896.94367135 334.78979492 896.9336853 C328.63036596 896.90269184 322.47272717 896.82075866 316.31408405 896.72019041 C309.29856649 896.60813452 302.28296012 896.55336476 295.26676941 896.50323606 C280.84359248 896.39891174 266.42182129 896.22319776 252 896 C255.25446962 892.6510642 258.72002735 890.00419804 262.5625 887.375 C269.22555322 882.72095565 275.0735496 877.56784353 281 872 C282.36914087 870.80574939 283.74366104 869.6176203 285.125 868.4375 C292.34055112 862.13307754 298.72428873 855.33541618 304.703125 847.8515625 C306.20404366 845.98817709 307.73448824 844.14809357 309.296875 842.3359375 C342.50555465 803.8095281 369.79267207 752.65080634 377 702 C377.14356934 701.04528809 377.14356934 701.04528809 377.29003906 700.07128906 C378.30775948 692.37819816 378.2437462 684.62165208 378.25 676.875 C378.25067474 676.12222778 378.25134949 675.36945557 378.25204468 674.59387207 C378.23353685 661.53599238 377.4109151 648.85900485 375 636 C374.83371094 635.10490723 374.66742187 634.20981445 374.49609375 633.28759766 C368.05184335 599.84313148 355.25527769 568.0497599 333 542 C332.26523437 541.11957031 331.53046875 540.23914063 330.7734375 539.33203125 C313.47766741 519.36020553 289.37881071 506.01164811 263 503 C224.35496869 501.01623198 190.94303329 515.39905325 162.37597656 541.06347656 C159.88575985 543.34306987 157.43588626 545.66256653 155 548 C154.04996094 548.90878906 153.09992187 549.81757812 152.12109375 550.75390625 C140.58718859 562.03114593 131.17482815 574.78187438 122 588 C121.49275391 588.69947754 120.98550781 589.39895508 120.46289062 590.11962891 C119.99560547 590.79815918 119.52832031 591.47668945 119.046875 592.17578125 C118.62760742 592.76915283 118.20833984 593.36252441 117.77636719 593.97387695 C116.04304197 598.4974197 118.2959061 603.1592118 120.06640625 607.3984375 C120.46923828 608.37167969 120.87207031 609.34492187 121.28710938 610.34765625 C121.91842773 611.84619141 121.91842773 611.84619141 122.5625 613.375 C122.98724609 614.39722656 123.41199219 615.41945313 123.84960938 616.47265625 C124.89412119 618.98417905 125.94439049 621.49312619 127 624 C127.26103516 623.48727539 127.52207031 622.97455078 127.79101562 622.44628906 C133.01587701 612.22990074 138.28044138 602.32537171 145 593 C145.69609375 592.01902344 146.3921875 591.03804687 147.109375 590.02734375 C152.15541217 583.09351608 157.64744561 576.69232072 163.56738281 570.50439453 C164.99527749 569.00495912 166.3996841 567.4857086 167.8046875 565.96484375 C185.36418935 547.30918692 211.06895275 532.73645963 237.046875 531.76171875 C266.75354896 531.18010433 291.26738714 539.22835302 313 560 C313.67546875 560.60070312 314.3509375 561.20140625 315.046875 561.8203125 C341.21420235 585.99892297 351.42163524 626.79615753 352.9140625 660.94091797 C354.06785633 702.01204502 343.49557867 741.97425442 324 778 C323.38898437 779.14984375 322.77796875 780.2996875 322.1484375 781.484375 C298.66704313 824.19538863 259.8789605 860.20064377 212.90234375 874.94140625 C198.39420533 879.03305708 184.14028862 881.17821974 169.07348633 881.13037109 C167.07048129 881.12502132 165.06745671 881.13084771 163.06445312 881.13671875 C156.29110663 881.12994202 149.71143404 880.92825542 143 880 C140.69 885.28 138.38 890.56 136 896 C86.64834604 896.41071354 37.29690922 896.72921701 -12.05611919 896.91917593 C-17.88393253 896.94168839 -23.71174249 896.96498621 -29.53955078 896.98876953 C-30.6997522 896.99349112 -31.85995362 896.99821271 -33.05531266 897.00307737 C-51.83622565 897.08138123 -70.61614591 897.22329032 -89.39647016 897.38875033 C-108.66995765 897.55713776 -127.94292562 897.65706987 -147.2171185 897.69359291 C-159.10901186 897.71828075 -170.99809945 897.79621292 -182.88912889 897.9424964 C-191.04574092 898.03772149 -199.20090486 898.06638685 -207.35803226 898.04302479 C-212.06411126 898.03150308 -216.76529374 898.04901617 -221.47049904 898.14569855 C-248.92920815 898.68241774 -248.92920815 898.68241774 -255.64787769 894.25520086 C-259.73792327 890.17209241 -262.13004154 885.63252557 -264.12382936 880.2539537 C-265.47408332 876.7804181 -267.39152922 873.7515757 -269.3125 870.5625 C-287.77656752 835.34312892 -290.21901615 793.93032081 -290.25 754.9375 C-290.25167175 753.82304504 -290.25334351 752.70859009 -290.25506592 751.56036377 C-290.25704476 729.40164521 -289.1191214 707.42334842 -286.45214844 685.42285156 C-286.36017181 684.66336212 -286.26819519 683.90387268 -286.1734314 683.12136841 C-285.99641981 681.68042612 -285.81513855 680.23999859 -285.62857056 678.80026245 C-285.38802135 676.87045618 -285.19323876 674.93511626 -285 673 C-284.87318848 671.80479736 -284.74637695 670.60959473 -284.61572266 669.37817383 C-285.11902316 664.95366996 -287.12814349 662.97341354 -290.25 660.06640625 C-290.78270508 659.5436058 -291.31541016 659.02080536 -291.86425781 658.48216248 C-293.56038943 656.82504648 -295.27924468 655.19399355 -297 653.5625 C-298.15784087 652.43978937 -299.31411041 651.31545582 -300.46875 650.18945312 C-303.29464875 647.44050817 -306.1411802 644.71467497 -309 642 C-309.46470703 643.01320313 -309.92941406 644.02640625 -310.40820312 645.0703125 C-311.03239558 646.42194729 -311.65675335 647.77350573 -312.28125 649.125 C-312.73806152 650.12273437 -312.73806152 650.12273437 -313.20410156 651.140625 C-320.920852 667.7990069 -331.39450591 678.6132715 -348.7109375 685.2734375 C-359.16341214 688.59111716 -375.08989582 689.39533464 -385 684.31640625 C-392.21417882 679.5680112 -397.4441611 674.46842474 -400 666 C-401.01796302 658.58598617 -400.41923748 652.52193799 -396.95703125 645.87890625 C-395.81566006 643.63809178 -395.32092783 641.48719066 -395 639 C-395.70962891 639.59748047 -395.70962891 639.59748047 -396.43359375 640.20703125 C-403.4173506 645.80220486 -410.20751627 648.6918734 -419.26171875 648.33984375 C-429.24659759 647.10063625 -437.60585957 643.98935218 -444 636 C-451.35815735 625.45619335 -450.48307146 610.53900422 -448.58398438 598.32421875 C-447.47401029 592.74434905 -445.8823845 587.36467083 -444 582 C-443.77538086 581.35740234 -443.55076172 580.71480469 -443.31933594 580.05273438 C-436.42192614 561.03716791 -422.17598405 539.6757726 -404 530 C-394.7455434 526.1859549 -386.91318429 525.92587065 -377.6171875 529.62109375 C-370.09079432 533.58649195 -367.1645158 540.06659571 -364.62890625 547.875 C-364.42136719 548.57625 -364.21382813 549.2775 -364 550 C-363.59910156 549.55269531 -363.19820313 549.10539063 -362.78515625 548.64453125 C-356.63545194 542.10436953 -349.85895304 537.4506887 -340.75 536.75 C-329.68155721 537.48789619 -318.29348246 544.99708175 -311.10546875 553.1484375 C-304.13966584 561.59264218 -298.6637605 570.35118165 -294.1875 580.3125 C-289.83372762 589.96105256 -284.09454923 598.2488285 -277.19921875 606.26953125 C-275 609 -275 609 -275 611 C-274.34 611 -273.68 611 -273 611 C-272.91363281 609.99582031 -272.82726562 608.99164062 -272.73828125 607.95703125 C-271.86598464 601.07055836 -269.96311965 594.38493707 -268.1875 587.6875 C-267.99258972 586.95023682 -267.79767944 586.21297363 -267.59686279 585.45336914 C-257.57781169 547.83483888 -243.5250173 511.74181477 -224 478 C-224.55397461 477.82476807 -225.10794922 477.64953613 -225.67871094 477.46899414 C-231.01882501 475.74041211 -236.13932222 473.7527537 -241.25 471.4375 C-242.01739502 471.09162842 -242.78479004 470.74575684 -243.57543945 470.3894043 C-246.05353355 469.2665763 -248.52699997 468.13399846 -251 467 C-251.82612793 466.62456055 -252.65225586 466.24912109 -253.50341797 465.86230469 C-286.33460769 450.88533712 -317.89475866 431.93374372 -345 408 C-345.83402344 407.27683594 -346.66804688 406.55367188 -347.52734375 405.80859375 C-358.59941645 396.06445197 -368.96445165 385.66885934 -378 374 C-378.82113281 372.97261719 -379.64226562 371.94523437 -380.48828125 370.88671875 C-390.70202373 358.02058532 -402.0547158 342.74123374 -404 326 C-404.10570312 325.1853125 -404.21140625 324.370625 -404.3203125 323.53125 C-405.7782999 301.97839271 -386.2812872 276.01499881 -376 258 C-376.71414063 257.43410156 -377.42828125 256.86820312 -378.1640625 256.28515625 C-389.96419318 246.77678648 -399.46340948 236.99115519 -402.6875 221.75 C-404.55905979 199.2912825 -398.29573761 179.75020994 -383.9453125 162.53515625 C-371.17129529 148.82116419 -353.80893582 140.20942678 -335.140625 138.78125 C-324.72631108 138.45063686 -314.91892194 141.10855254 -305 144 C-304.69932617 143.49887695 -304.39865234 142.99775391 -304.08886719 142.48144531 C-303.66250977 141.77084961 -303.23615234 141.06025391 -302.796875 140.328125 C-302.31694092 139.52802002 -301.83700684 138.72791504 -301.3425293 137.90356445 C-300.269237 136.11518273 -299.19516448 134.32726905 -298.12036133 132.53979492 C-295.32117574 127.88208362 -292.53422796 123.21804805 -289.77734375 118.53515625 C-289.25881836 117.65891602 -288.74029297 116.78267578 -288.20605469 115.87988281 C-287.22390256 114.21938253 -286.24636607 112.55613975 -285.27441406 110.88964844 C-264.49747476 75.87151359 -219.51377096 64.3711628 -183 52 C-181.906875 51.62568848 -180.81375 51.25137695 -179.6875 50.86572266 C-162.78080458 45.11136538 -145.68256171 40.44707162 -128.40591431 35.97094727 C-105.31670097 29.98794473 -84.84818147 23.99009788 -64.68359375 10.9765625 C-46.03957082 -0.98576547 -21.47603911 -11.77491506 0 0 Z M197.18359375 589.921875 C195 592 195 592 192.41796875 594.05859375 C170.3799045 611.75312999 156.13124404 644.13375194 148.3125 670.375 C148.05629883 671.21192383 147.80009766 672.04884766 147.53613281 672.91113281 C144.6504612 683.31043993 147.79036393 692.72306347 150.26654053 702.92282104 C154.8141462 721.78661476 158.15230317 740.69936418 159.43359375 760.09765625 C159.50078613 761.02006104 159.56797852 761.94246582 159.63720703 762.89282227 C159.74908804 764.55685747 159.83244383 766.22322253 159.87841797 767.89038086 C160.08974054 771.19001101 160.34082907 773.23061737 162.53320312 775.78955078 C167.97437534 780.53844374 173.18937382 783.72002723 180.5859375 783.3984375 C193.8778816 781.20462148 203.57984555 769.30802235 211.01318359 758.93847656 C227.22759057 735.55309302 242.48744004 706.07212273 242.3125 677.0625 C242.30758545 676.09683105 242.3026709 675.13116211 242.29760742 674.13623047 C242.10998463 662.74608345 239.87841759 653.44729671 232.0625 644.875 C229.92750842 643.77140942 229.92750842 643.77140942 227.125 644.3125 C217.79659804 649.34983706 215.60819952 659.92535044 212.75878906 669.41162109 C211.184214 674.78280667 209.64299389 680.16451694 208.1796875 685.56713867 C203.66279387 701.96173021 203.66279387 701.96173021 198.5 707.5 C197.64921875 708.44359375 197.64921875 708.44359375 196.78125 709.40625 C192.38602889 713.33881626 188.35137902 713.45288093 182.625 713.29296875 C180 713 180 713 177.0625 711.6875 C169.59315536 701.9547176 169.78786086 689.71880365 171 678 C174.09295584 658.40364272 183.13066402 638.04282383 196 623 C196.49757813 622.38382813 196.99515625 621.76765625 197.5078125 621.1328125 C203.72708331 614.10097365 214.37981118 608.56797682 223.77734375 607.76171875 C236.64291451 607.45956072 247.93321718 610.80500961 258 619 C267.92736343 628.94459844 272.83934624 641.53683061 276 655 C276.226875 655.95648437 276.45375 656.91296875 276.6875 657.8984375 C283.57935696 693.60208534 272.21883018 732.11948245 252.51367188 761.99755859 C235.92624701 786.30056275 214.29640731 806.54225509 184.6875 812.6875 C176.03834726 813.42047905 167.5960649 813.06151125 159 812 C158.18589977 816.04134603 157.37400341 820.08313179 156.5625 824.125 C156.33240234 825.26710938 156.10230469 826.40921875 155.86523438 827.5859375 C155.53168945 829.24882813 155.53168945 829.24882813 155.19140625 830.9453125 C154.88505249 832.46922607 154.88505249 832.46922607 154.57250977 834.02392578 C153.99826816 837.00900262 153.4870317 839.9995718 153 843 C185.40265496 844.22880547 212.18006363 832.9079068 236.05615234 811.12402344 C251.91269386 796.27545072 264.18656457 779.77289787 275 761 C275.35368652 760.40106934 275.70737305 759.80213867 276.07177734 759.18505859 C298.18438074 721.58393904 309.96458197 675.76514514 298.96875 632.8203125 C295.00540575 618.53985542 288.27619015 605.54791019 279 594 C278.47148438 593.29617188 277.94296875 592.59234375 277.3984375 591.8671875 C268.80159298 581.06819562 254.90729417 572.83588232 241.25 570.9375 C224.26599767 570.22798554 209.11108057 578.42849082 197.18359375 589.921875 Z " fill="#34A997" transform="translate(449,4)"/>
<path d="M0 0 C0.85980469 0.46277344 1.71960938 0.92554688 2.60546875 1.40234375 C23.92464228 13.9846554 43.54915578 35.09219363 58 55 C58.75796875 55.97453125 59.5159375 56.9490625 60.296875 57.953125 C66.48584983 65.93476841 71.83505608 74.33532354 77 83 C77.4139502 83.68803711 77.82790039 84.37607422 78.25439453 85.08496094 C118.81987736 153.09040108 131.89278715 261.61780854 113.11157227 338.35864258 C104.15257501 372.83364731 85.44885426 404.26436393 61 430 C59.868134 431.30658357 58.74269848 432.61877662 57.625 433.9375 C49.93140209 442.73535549 41.94879903 450.77704602 32 457 C31.35788574 457.4110498 30.71577148 457.82209961 30.05419922 458.24560547 C17.32247642 466.38385442 4.54840758 473.13554155 -9.6875 478.25 C-10.66601929 478.60155151 -10.66601929 478.60155151 -11.66430664 478.96020508 C-21.98673686 482.52111769 -32.52476338 484.57236088 -43.3125 486.125 C-44.42044922 486.29386719 -45.52839844 486.46273438 -46.66992188 486.63671875 C-61.9685217 488.88157395 -77.31750234 489.24715302 -92.75 489.5625 C-93.72844879 489.58268188 -94.70689758 489.60286377 -95.71499634 489.62365723 C-150.31329506 490.71831048 -198.11948017 491.50033628 -248.40136719 468.203125 C-250.12124583 467.40684898 -251.84323244 466.61510882 -253.56738281 465.828125 C-286.37508325 450.84173729 -317.90667634 431.92322048 -345 408 C-345.83402344 407.27683594 -346.66804688 406.55367188 -347.52734375 405.80859375 C-358.59941645 396.06445197 -368.96445165 385.66885934 -378 374 C-378.82113281 372.97261719 -379.64226562 371.94523437 -380.48828125 370.88671875 C-390.70202373 358.02058532 -402.0547158 342.74123374 -404 326 C-404.10570312 325.1853125 -404.21140625 324.370625 -404.3203125 323.53125 C-405.7782999 301.97839271 -386.2812872 276.01499881 -376 258 C-376.71414063 257.43410156 -377.42828125 256.86820312 -378.1640625 256.28515625 C-389.96419318 246.77678648 -399.46340948 236.99115519 -402.6875 221.75 C-404.55905979 199.2912825 -398.29573761 179.75020994 -383.9453125 162.53515625 C-371.17129529 148.82116419 -353.80893582 140.20942678 -335.140625 138.78125 C-324.72631108 138.45063686 -314.91892194 141.10855254 -305 144 C-304.54898926 143.24831543 -304.54898926 143.24831543 -304.08886719 142.48144531 C-303.66250977 141.77084961 -303.23615234 141.06025391 -302.796875 140.328125 C-302.07697388 139.12796753 -302.07697388 139.12796753 -301.3425293 137.90356445 C-300.269237 136.11518273 -299.19516448 134.32726905 -298.12036133 132.53979492 C-295.32117574 127.88208362 -292.53422796 123.21804805 -289.77734375 118.53515625 C-289.25881836 117.65891602 -288.74029297 116.78267578 -288.20605469 115.87988281 C-287.22390256 114.21938253 -286.24636607 112.55613975 -285.27441406 110.88964844 C-264.49747476 75.87151359 -219.51377096 64.3711628 -183 52 C-181.906875 51.62568848 -180.81375 51.25137695 -179.6875 50.86572266 C-162.78080458 45.11136538 -145.68256171 40.44707162 -128.40591431 35.97094727 C-105.31670097 29.98794473 -84.84818147 23.99009788 -64.68359375 10.9765625 C-46.03957082 -0.98576547 -21.47603911 -11.77491506 0 0 Z " fill="#F1CC36" transform="translate(449,4)"/>
<path d="M0 0 C1.21780151 0.00081573 1.21780151 0.00081573 2.46020508 0.00164795 C54.23790699 0.16048305 98.82957939 20.91693629 135.625 56.5625 C179.25696726 100.74754854 202.11368459 170.08593487 202.390625 231.32421875 C202.39632507 232.33934036 202.40202515 233.35446198 202.40789795 234.40034485 C202.41728331 236.5407306 202.42385596 238.68113039 202.42773438 240.8215332 C202.43734046 244.00955313 202.46838561 247.19689904 202.5 250.38476562 C202.59549179 268.78080589 201.37778199 287.35109274 196.5625 305.1875 C196.18399902 306.63769531 196.18399902 306.63769531 195.79785156 308.1171875 C190.24260539 328.8056905 182.86970098 348.80775573 174.1875 368.375 C173.81125488 369.22529785 173.43500977 370.0755957 173.04736328 370.95166016 C163.23562876 392.90135499 150.83758484 413.96437501 135.56970215 432.58849525 C134.0920133 434.44640074 134.0920133 434.44640074 132.59143066 436.84416771 C127.77949571 443.81741096 127.77949571 443.81741096 123.59060669 445.28454971 C120.53166587 445.60385246 117.61302805 445.61399954 114.5390625 445.51025391 C112.82555855 445.51244431 112.82555855 445.51244431 111.07743835 445.51467896 C107.32049195 445.50773949 103.56857395 445.43010163 99.8125 445.3515625 C97.20079254 445.33290123 94.58904996 445.31867135 91.97729492 445.3086853 C85.81786596 445.27769184 79.66022717 445.19575866 73.50158405 445.09519041 C66.48606649 444.98313452 59.47046012 444.92836476 52.45426941 444.87823606 C38.03109248 444.77391174 23.60932129 444.59819776 9.1875 444.375 C12.44196962 441.0260642 15.90752735 438.37919804 19.75 435.75 C26.41305322 431.09595565 32.2610496 425.94284353 38.1875 420.375 C39.55664087 419.18074939 40.93116104 417.9926203 42.3125 416.8125 C49.52805112 410.50807754 55.91178873 403.71041618 61.890625 396.2265625 C63.39154366 394.36317709 64.92198824 392.52309357 66.484375 390.7109375 C99.69305465 352.1845281 126.98017207 301.02580634 134.1875 250.375 C134.33106934 249.42028809 134.33106934 249.42028809 134.47753906 248.44628906 C135.49525948 240.75319816 135.4312462 232.99665208 135.4375 225.25 C135.43817474 224.49722778 135.43884949 223.74445557 135.43954468 222.96887207 C135.42103685 209.91099238 134.5984151 197.23400485 132.1875 184.375 C132.02121094 183.47990723 131.85492187 182.58481445 131.68359375 181.66259766 C125.23934335 148.21813148 112.44277769 116.4247599 90.1875 90.375 C89.08535156 89.05435547 89.08535156 89.05435547 87.9609375 87.70703125 C70.66516741 67.73520553 46.56631071 54.38664811 20.1875 51.375 C-18.45753131 49.39123198 -51.86946671 63.77405325 -80.43652344 89.43847656 C-82.92674015 91.71806987 -85.37661374 94.03756653 -87.8125 96.375 C-88.76253906 97.28378906 -89.71257812 98.19257812 -90.69140625 99.12890625 C-104.71758901 112.84296255 -117.33585397 129.1526022 -126.8125 146.375 C-129.62281976 144.96984012 -129.82191328 143.36292235 -130.9921875 140.46875 C-131.42072021 139.42630127 -131.84925293 138.38385254 -132.29077148 137.30981445 C-132.75169189 136.17632568 -133.2126123 135.04283691 -133.6875 133.875 C-137.63362656 124.35272416 -141.77404898 114.97589789 -146.25 105.6875 C-146.7454834 104.65625 -147.2409668 103.625 -147.75146484 102.5625 C-149.76332178 98.41943287 -151.77091643 94.38120255 -154.22265625 90.48046875 C-155.8125 87.375 -155.8125 87.375 -155.8203125 84.73828125 C-154.55259004 81.76552121 -152.91691374 79.9014951 -150.6875 77.5625 C-149.86765625 76.68851563 -149.0478125 75.81453125 -148.203125 74.9140625 C-147.41421875 74.07617188 -146.6253125 73.23828125 -145.8125 72.375 C-144.68091675 71.06817155 -143.55533326 69.75610914 -142.4375 68.4375 C-135.42757278 60.42615461 -127.86870785 53.15906943 -119.53125 46.54296875 C-117.77443503 45.14206026 -116.04274767 43.70877448 -114.34375 42.23828125 C-82.76736039 15.09623031 -41.4676648 -0.10482328 0 0 Z " fill="#A088BE" transform="translate(691.8125,455.625)"/>
<path d="M0 0 C17.42139349 15.05490362 29.58149182 38.01287087 32 61 C33.19976823 89.9822681 30.65847547 118.22001355 10.375 140.625 C-9.78126634 161.99892875 -36.99510725 172.96881107 -66.1640625 174.28125 C-97.94758328 175.12853501 -131.95156423 166.81356349 -155.6171875 144.59375 C-169.96845957 128.97203745 -173.10513446 111.86316465 -172.46875 91.1640625 C-170.96119206 62.4676971 -156.12369236 26.70068914 -135 7 C-134.26265625 6.26910156 -133.5253125 5.53820312 -132.765625 4.78515625 C-97.54129001 -28.70367318 -37.35309689 -30.18534046 0 0 Z " fill="#A992C5" transform="translate(372,180)"/>
<path d="M0 0 C3.45952392 2.87872793 6.74726396 5.89109243 10 9 C11.01320313 9.90105469 11.01320313 9.90105469 12.046875 10.8203125 C38.21420235 34.99892297 48.42163524 75.79615753 49.9140625 109.94091797 C51.06785633 151.01204502 40.49557867 190.97425442 21 227 C20.38898438 228.14984375 19.77796875 229.2996875 19.1484375 230.484375 C-4.33295687 273.19538863 -43.1210395 309.20064377 -90.09765625 323.94140625 C-105.3006962 328.22903635 -120.09810973 330.17978891 -135.875 330.1875 C-137.18597656 330.19974609 -138.49695313 330.21199219 -139.84765625 330.22460938 C-147.14674097 330.23559095 -153.92148598 329.8421671 -161 328 C-159.75816829 323.67572368 -158.51294984 319.35244121 -157.26464844 315.0300293 C-156.84087493 313.56089388 -156.41801155 312.0914956 -155.99609375 310.62182617 C-155.38783742 308.50368827 -154.77626348 306.38653193 -154.1640625 304.26953125 C-153.97752106 303.61725052 -153.79097961 302.96496979 -153.5987854 302.29292297 C-152.5773648 298.77388703 -151.42689472 295.37548019 -150 292 C-149.44763672 291.9906543 -148.89527344 291.98130859 -148.32617188 291.97167969 C-111.12640151 291.18576905 -82.47135069 275.78082121 -56.890625 249.234375 C-45.80861645 237.38658106 -37.07269021 224.014768 -29 210 C-28.64631348 209.40106934 -28.29262695 208.80213867 -27.92822266 208.18505859 C-5.81561926 170.58393904 5.96458197 124.76514514 -5.03125 81.8203125 C-9.00156652 67.51473338 -15.75086212 54.5956422 -25 43 C-25.45503906 42.36964844 -25.91007813 41.73929688 -26.37890625 41.08984375 C-34.39591909 30.58396722 -48.83203044 22.7331152 -61.75 20.9375 C-77.5563855 20.27718102 -91.97852309 27.42105074 -103.5625 37.6875 C-105.05582145 39.11028998 -106.53732082 40.54572702 -108 42 C-109.3303125 43.299375 -109.3303125 43.299375 -110.6875 44.625 C-111.450625 45.40875 -112.21375 46.1925 -113 47 C-113.51312744 47.49266357 -114.02625488 47.98532715 -114.55493164 48.49291992 C-137.05559117 70.27604749 -149.59443016 102.19165103 -157 132 C-159.02282507 128.96576239 -159.84733515 126.6113029 -160.8828125 123.13671875 C-161.24197754 121.94965332 -161.60114258 120.76258789 -161.97119141 119.53955078 C-162.15949524 118.91083069 -162.34779907 118.2821106 -162.54180908 117.63433838 C-165.8540082 106.57738231 -169.36792536 95.67889766 -173.69970703 84.9675293 C-175.94708697 79.16246156 -176.68929523 75.04413208 -174.18945312 69.05957031 C-173.17367621 66.93335991 -172.07752029 64.8746648 -170.9375 62.8125 C-170.53337891 62.06782471 -170.12925781 61.32314941 -169.71289062 60.5559082 C-166.16733947 54.11607204 -162.27693781 47.98109485 -158 42 C-157.30261719 41.01644531 -156.60523438 40.03289063 -155.88671875 39.01953125 C-150.83974879 32.09003253 -145.35058713 25.6902644 -139.43261719 19.50439453 C-138.00472251 18.00495912 -136.6003159 16.4857086 -135.1953125 14.96484375 C-100.45998084 -21.93884708 -41.46752792 -32.19268401 0 0 Z " fill="#9F87BD" transform="translate(752,555)"/>
<path d="M0 0 C6.31309464 4.95030484 8.77748091 11.49037029 11 19 C11.40089844 18.55269531 11.80179687 18.10539063 12.21484375 17.64453125 C18.36454806 11.10436953 25.14104696 6.4506887 34.25 5.75 C39.89469735 6.12631316 44.3129739 7.87531594 49 11 C49 11.66 49 12.32 49 13 C49.66 13 50.32 13 51 13 C57.36890392 43.65035013 51.31913035 77.36235337 35 104 C32.84105935 107.18281594 30.54881296 110.12230795 28 113 C27.48179688 113.61101562 26.96359375 114.22203125 26.4296875 114.8515625 C17.76847676 124.34960519 5.86794115 129.57090607 -6.875 130.1875 C-11.57916796 128.39991617 -13.61114749 125.32752612 -16 121 C-17.77445422 116.77445144 -18.90959147 112.44166409 -20 108 C-20.47308594 108.39832031 -20.94617187 108.79664063 -21.43359375 109.20703125 C-28.4173506 114.80220486 -35.20751627 117.6918734 -44.26171875 117.33984375 C-54.24659759 116.10063625 -62.60585957 112.98935218 -69 105 C-76.35815735 94.45619335 -75.48307146 79.53900422 -73.58398438 67.32421875 C-72.47401029 61.74434905 -70.8823845 56.36467083 -69 51 C-68.77538086 50.35740234 -68.55076172 49.71480469 -68.31933594 49.05273438 C-61.42192614 30.03716791 -47.17598405 8.6757726 -29 -1 C-18.80901134 -5.20001865 -9.82430105 -5.17608697 0 0 Z " fill="#43B6A5" transform="translate(74,535)"/>
<path d="M0 0 C14.29728323 11.22210514 20.5345582 29.34274755 22.9296875 46.80078125 C27.55735125 87.90292346 13.13130825 127.83206543 -12.34594727 159.86352539 C-27.44339114 178.36526926 -47.22114472 192.6875548 -70.87890625 197.59765625 C-80.01611768 198.3719962 -87.51858783 197.92078256 -96.56640625 195.91015625 C-96.23640625 183.04015625 -95.90640625 170.17015625 -95.56640625 156.91015625 C-92.92640625 158.89015625 -90.28640625 160.87015625 -87.56640625 162.91015625 C-82.59213594 166.08522241 -78.33568522 166.87014936 -72.56640625 165.91015625 C-51.23081182 158.86634756 -39.45059668 134.54633932 -29.99609375 115.86328125 C-21.33949496 98.41640968 -14.1349011 80.7068152 -14.25390625 60.97265625 C-14.2588208 60.0069873 -14.26373535 59.04131836 -14.26879883 58.04638672 C-14.43348585 48.04861754 -15.86982185 38.75926853 -22.56640625 30.91015625 C-24.85473803 28.9584563 -24.85473803 28.9584563 -27.56640625 28.91015625 C-33.98365595 31.58401029 -35.98826971 36.7392302 -38.56640625 42.91015625 C-40.24284876 47.96690879 -41.66691101 53.08436802 -43.06640625 58.22265625 C-51.90611694 90.41999329 -51.90611694 90.41999329 -62.4765625 97.12109375 C-66.73073031 98.72734029 -71.11238944 98.50488709 -75.56640625 97.91015625 C-80.95467971 95.06906661 -83.03908005 91.18408249 -84.8671875 85.4375 C-89.65521955 61.28334948 -80.19642041 36.24771751 -67.56640625 15.91015625 C-65.39201093 12.75676778 -63.06326599 9.81335719 -60.56640625 6.91015625 C-59.99535156 6.22050781 -59.42429687 5.53085937 -58.8359375 4.8203125 C-43.03346652 -12.73424482 -18.81818864 -12.86410283 0 0 Z " fill="#9F86BC" transform="translate(704.56640625,620.08984375)"/>
<path d="M0 0 C2.34278941 0.01078158 4.68482054 -0.00000136 7.02758789 -0.01269531 C29.24715755 -0.03640399 45.90474983 5.5122562 62.39672852 21.01074219 C72.61609547 31.76456098 75.93572668 42.96634735 78.5793457 57.20947266 C78.9507081 59.20658419 79.33875761 61.20068233 79.74536133 63.19091797 C88.0542835 104.25276823 86.95083462 152.42191928 65.14672852 189.26074219 C63.00245025 192.45875376 60.67628248 195.36314688 58.14672852 198.26074219 C57.64012695 198.92074219 57.13352539 199.58074219 56.61157227 200.26074219 C46.2942034 213.23984013 30.43694507 219.89239274 14.95922852 224.44824219 C14.15936523 224.68631592 13.35950195 224.92438965 12.53540039 225.16967773 C-2.78211825 229.4473677 -17.94341009 230.81066122 -33.79077148 230.69824219 C-34.67869385 230.69586548 -35.56661621 230.69348877 -36.48144531 230.69104004 C-51.90545543 230.6267906 -66.70911181 229.34030924 -81.85327148 226.26074219 C-83.07143555 226.02846924 -83.07143555 226.02846924 -84.31420898 225.79150391 C-107.4423205 221.3365797 -138.13400112 211.6925379 -152.38452148 191.71386719 C-158.52695609 181.4546945 -160.12651981 173.03044524 -157.29077148 161.44824219 C-157.11296143 160.71669922 -156.93515137 159.98515625 -156.75195312 159.23144531 C-150.01149283 132.75246927 -136.91245015 107.62276101 -124.85327148 83.26074219 C-124.4162793 82.37596191 -123.97928711 81.49118164 -123.52905273 80.57958984 C-108.00927175 49.41467579 -84.94006024 18.9669412 -50.85327148 7.26074219 C-34.14244122 2.08240628 -17.4465756 -0.09530643 0 0 Z M-100.33764648 63.35449219 C-112.51544008 77.42324752 -121.19698246 97.62397383 -126.85327148 115.26074219 C-127.07740723 115.92412598 -127.30154297 116.58750977 -127.5324707 117.27099609 C-133.50247103 135.40673647 -135.85346953 158.23989859 -128.40014648 176.24511719 C-125.8611245 181.19492772 -123.19429625 185.8060425 -119.85327148 190.26074219 C-118.97735352 191.42863281 -118.97735352 191.42863281 -118.08374023 192.62011719 C-100.61459784 213.95085948 -70.21372919 222.03207844 -43.90625 225.08203125 C-12.57064413 227.80978288 17.81243579 220.05203657 42.12719727 199.84277344 C43.62186523 198.56466797 43.62186523 198.56466797 45.14672852 197.26074219 C45.84411133 196.66648437 46.54149414 196.07222656 47.26000977 195.45996094 C61.74973024 182.03615093 70.74067105 160.70828667 72.14672852 141.26074219 C72.30923022 136.48913459 72.33179896 131.72231633 72.33422852 126.94824219 C72.34647461 125.69333984 72.3587207 124.4384375 72.37133789 123.14550781 C72.40905806 99.0171744 63.53407155 76.03834717 47.14672852 58.26074219 C46.53571289 57.55820313 45.92469727 56.85566406 45.29516602 56.13183594 C30.57895421 40.13186949 7.51931108 31.4534501 -13.79418945 30.06982422 C-46.85288052 28.78334843 -77.0798679 39.16640246 -100.33764648 63.35449219 Z " fill="#D4B124" transform="translate(331.853271484375,128.7392578125)"/>
<path d="M0 0 C31.78727435 37.73831658 45.98436467 99.57597125 46.203125 147.94921875 C46.20882507 148.96434036 46.21452515 149.97946198 46.22039795 151.02534485 C46.22978331 153.1657306 46.23635596 155.30613039 46.24023438 157.4465332 C46.24984046 160.63455313 46.28088561 163.82189904 46.3125 167.00976562 C46.40799179 185.40580589 45.19028199 203.97609274 40.375 221.8125 C40.12266602 222.77929688 39.87033203 223.74609375 39.61035156 224.7421875 C34.05510539 245.4306905 26.68220098 265.43275573 18 285 C17.62375488 285.85029785 17.24750977 286.7005957 16.85986328 287.57666016 C7.05646646 309.50770285 -5.32057801 330.63531596 -20.62319946 349.21287537 C-22.09753466 351.06655797 -22.09753466 351.06655797 -23.54745483 353.4747467 C-28.2675321 360.46979455 -28.2675321 360.46979455 -32.87869263 361.8809967 C-36.30396127 362.15571658 -39.5982393 362.12625943 -43.03125 361.9765625 C-44.8787384 361.95533829 -44.8787384 361.95533829 -46.7635498 361.9336853 C-50.67822506 361.87792557 -54.58707015 361.75251186 -58.5 361.625 C-61.16137457 361.56914999 -63.82269438 361.52919493 -66.484375 361.48828125 C-72.99155568 361.3783242 -79.4953614 361.21123311 -86 361 C-81.97269821 356.95244752 -77.86379584 353.01721547 -73.6875 349.125 C-73.02105469 348.50222168 -72.35460937 347.87944336 -71.66796875 347.23779297 C-68.33283124 344.13145761 -64.97555683 341.07478497 -61.5 338.125 C-58.31641218 335.37864313 -55.59396456 332.397115 -52.8828125 329.1875 C-51.58143836 327.67553004 -50.23958787 326.19780698 -48.8671875 324.75 C-9.46833176 283.14064741 15.69054182 226.70535749 25.1875 170.625 C25.35459473 169.63862549 25.52168945 168.65225098 25.69384766 167.63598633 C27.64725085 155.64901112 28.16123498 143.93491968 28.13037109 131.8137207 C28.12504775 129.33473488 28.13032519 126.8559332 28.13671875 124.37695312 C28.14327833 111.2026023 27.95665139 97.95812332 25.75 84.9375 C25.61924072 84.15479736 25.48848145 83.37209473 25.35375977 82.56567383 C24.91930174 80.04046397 24.46304493 77.52011601 24 75 C23.76869385 73.71125977 23.76869385 73.71125977 23.53271484 72.39648438 C19.33150071 49.55997444 12.21403786 27.07812019 1.6171875 6.39453125 C0 3 0 3 0 0 Z " fill="#7E61A1" transform="translate(848,539)"/>
<path d="M0 0 C25.09370318 30.14575405 30.5361579 75.23062051 27.10546875 112.89672852 C23.73134042 144.74006466 14.08257769 174.80637441 -1 203 C-1.92039062 204.73443359 -1.92039062 204.73443359 -2.859375 206.50390625 C-26.36981376 249.20158326 -65.11187087 285.19776676 -112.09765625 299.94140625 C-127.3006962 304.22903635 -142.09810973 306.17978891 -157.875 306.1875 C-159.18597656 306.19974609 -160.49695313 306.21199219 -161.84765625 306.22460938 C-169.20194144 306.235674 -175.85033168 305.74264555 -183 304 C-181.35 298.72 -179.7 293.44 -178 288 C-176.6903125 288.04640625 -175.380625 288.0928125 -174.03125 288.140625 C-133.39568986 289.12365227 -96.49654936 275.29001754 -65 250 C-64.38350586 249.5059668 -63.76701172 249.01193359 -63.13183594 248.50292969 C-43.11855472 232.29762715 -27.72594837 212.2987388 -15 190 C-14.59797363 189.29907227 -14.19594727 188.59814453 -13.78173828 187.87597656 C12.29756683 141.91187345 24.30958584 82.2218435 10.125 30.5 C9.43667407 28.32689439 8.72778519 26.16021047 8 24 C7.57775677 22.67761551 7.15725907 21.35467271 6.73828125 20.03125 C4.42377824 12.74119439 4.42377824 12.74119439 1.34765625 5.75 C0 3 0 3 0 0 Z " fill="#7D61A0" transform="translate(774,579)"/>
<path d="M0 0 C0.99 0.66 1.98 1.32 3 2 C3 2.66 3 3.32 3 4 C3.66 4 4.32 4 5 4 C11.36890392 34.65035013 5.31913035 68.36235337 -11 95 C-13.15894065 98.18281594 -15.45118704 101.12230795 -18 104 C-18.51820312 104.61101562 -19.03640625 105.22203125 -19.5703125 105.8515625 C-28.23152324 115.34960519 -40.13205885 120.57090607 -52.875 121.1875 C-58.25802329 119.14195115 -60.47011711 114.95048843 -63.0390625 109.99609375 C-72.63235648 86.37148662 -56.11048402 53.73992384 -47.18920898 31.84619141 C-41.47099319 18.44139049 -33.75843172 4.59106687 -19.875 -1.5 C-12.56710944 -4.037462 -6.86845779 -3.25505173 0 0 Z " fill="#46BAA9" transform="translate(120,544)"/>
<path d="M0 0 C-3.83119367 7.39187814 -8.40819003 14.24193708 -13.06600952 21.1255188 C-28.65787486 44.1976118 -43.03810626 67.91657095 -57 92 C-57.66 91.01 -58.32 90.02 -59 89 C-61.96456176 85.78839143 -63.35507603 85.05201 -67.875 84.6875 C-71.07613675 84.71654843 -71.79001963 84.83847664 -74.4375 86.875 C-77.04191134 90.41699942 -77.43241556 92.58936125 -77 97 C-75.39327363 99.94566501 -74.14773015 101.57726733 -70.953125 102.75390625 C-68.98792762 103.25217438 -66.9941448 103.63440679 -65 104 C-66.12451727 106.9719385 -67.22293791 109.33440687 -69 112 C-80.7396455 107.75725093 -89.18490943 97.67851534 -94.77734375 86.8515625 C-101.21475449 71.83779305 -98.06445341 54.26100996 -92.875 39.375 C-85.46393304 21.31329789 -70.9367269 7.71725125 -53.53125 -0.671875 C-36.23398025 -7.67315085 -17.01563439 -8.5078172 0 0 Z " fill="#A992C4" transform="translate(144,149)"/>
<path d="M0 0 C1.20140625 0.32871094 2.4028125 0.65742188 3.640625 0.99609375 C19.29189918 5.72749358 32.11281874 13.90663388 44 25 C44.88300781 25.81339844 45.76601563 26.62679687 46.67578125 27.46484375 C55.96381254 36.37730923 65.17792768 47.46094693 71 59 C70.67 59.66 70.34 60.32 70 61 C69.46632813 60.33355469 68.93265625 59.66710937 68.3828125 58.98046875 C48.02392037 33.79602607 24.37270458 14.81013549 -9 11 C-47.64503131 9.01623198 -81.05696671 23.39905325 -109.62402344 49.06347656 C-112.11424015 51.34306987 -114.56411374 53.66256653 -117 56 C-117.95003906 56.90878906 -118.90007813 57.81757812 -119.87890625 58.75390625 C-133.90508901 72.46796255 -146.52335397 88.7776022 -156 106 C-158.70941138 104.64529431 -158.85515547 103.32306904 -159.9453125 100.52734375 C-160.29980469 99.62822266 -160.65429688 98.72910156 -161.01953125 97.80273438 C-161.38433594 96.85720703 -161.74914062 95.91167969 -162.125 94.9375 C-162.49753906 93.98810547 -162.87007812 93.03871094 -163.25390625 92.06054688 C-164.17547165 89.7093736 -165.09051802 87.35586803 -166 85 C-165.25878906 84.27683594 -164.51757812 83.55367187 -163.75390625 82.80859375 C-161.30874345 80.31487453 -159.11642203 77.78720212 -156.9375 75.0625 C-146.13381348 61.74632824 -135.23533076 48.92826383 -121.75390625 38.203125 C-119.98498761 36.78799009 -118.24002543 35.34207572 -116.52734375 33.859375 C-85.84506558 7.49253318 -40.42970525 -11.29653529 0 0 Z " fill="#9076B0" transform="translate(721,496)"/>
<path d="M0 0 C8.36980594 7.6843477 11.47776405 19.25624496 14 30 C14.226875 30.95648437 14.45375 31.91296875 14.6875 32.8984375 C21.57821114 68.59614939 10.22418951 107.1303034 -9.48852539 136.99975586 C-26.30230817 161.62264677 -48.29822519 182.45812221 -78.3125 188.6875 C-87.18157848 189.43911682 -95.38755559 189.33557815 -104 187 C-104 183.04 -104 179.08 -104 175 C-103.67 175.99 -103.34 176.98 -103 178 C-74.27048482 177.60888036 -52.68680338 164.90477455 -32.78125 144.75390625 C-19.66799117 130.57389423 -9.95309561 112.92135911 -3 95 C-2.68337402 94.18587646 -2.36674805 93.37175293 -2.04052734 92.53295898 C8.18409997 65.46876058 9.30185473 35.10697242 1.875 7.1875 C1.69324219 6.48302734 1.51148438 5.77855469 1.32421875 5.05273438 C0.88845601 3.36702063 0.44512545 1.68326567 0 0 Z " fill="#7F63A2" transform="translate(712,629)"/>
<path d="M0 0 C3.47788345 3.3151402 6.27616617 6.63036427 8.9375 10.625 C18.79819487 25.17297459 29.51539106 39.11026878 40.37011719 52.92480469 C41.91959268 54.897624 43.46444511 56.87396301 45.0078125 58.8515625 C50.57748125 65.97966832 56.21897414 73.04135777 62 80 C62.44375977 80.53544434 62.88751953 81.07088867 63.34472656 81.62255859 C74.47396384 95.02455994 86.24105577 108.99597241 104.703125 111.34375 C110.84856142 111.56454412 115.12292452 110.63679226 119.77734375 106.37109375 C126.9017977 98.91526985 130.11290425 89.91998917 130 79.65234375 C129.92422855 67.19577783 129.92422855 67.19577783 132.9609375 63.8203125 C135.375 62.5625 135.375 62.5625 137.7734375 61.75390625 C140.22472844 60.92390774 141.32795058 59.9363411 143 58 C144.73010753 63.1903226 144.22563069 68.7502952 144.24023438 74.18408203 C144.24981177 76.33277045 144.28078112 78.48044758 144.3125 80.62890625 C144.41769751 94.22042475 142.86079678 107.28160362 133.5 117.8125 C132.675 118.534375 131.85 119.25625 131 120 C130.278125 120.680625 129.55625 121.36125 128.8125 122.0625 C120.28139274 127.939485 110.22891047 130.25128002 100 129 C80.26873421 122.26552515 65.04860466 103.22981523 53 87 C52.5452832 86.39542969 52.09056641 85.79085937 51.62207031 85.16796875 C44.73249956 76.00758776 38.1976094 66.64171906 32 57 C31.51837402 56.25073242 31.03674805 55.50146484 30.54052734 54.72949219 C21.60141996 40.73412189 13.48687178 26.32881137 5.52685547 11.76269531 C4.23897802 9.4324073 2.91611649 7.13062242 1.56640625 4.8359375 C0 2 0 2 0 0 Z " fill="#1E8B7A" transform="translate(355,661)"/>
<path d="M0 0 C0.91612061 0.00499512 1.83224121 0.00999023 2.77612305 0.01513672 C15.27988426 0.33600131 24.19261915 5.53828116 33.1875 13.875 C33.991875 14.74125 34.79625 15.6075 35.625 16.5 C36.16898438 17.07363281 36.71296875 17.64726563 37.2734375 18.23828125 C41.75156811 23.11729255 45.93899744 28.40234097 48.625 34.5 C48.295 35.49 47.965 36.48 47.625 37.5 C47.11453125 36.81035156 46.6040625 36.12070312 46.078125 35.41015625 C36.73029979 23.32759494 24.36975128 13.56442016 8.9921875 10.71875 C-8.08153088 9.14098064 -22.71319918 17.1320249 -35.55737305 27.58081055 C-41.00067693 32.14476922 -46.02911331 36.86644318 -50.375 42.5 C-50.76864746 43.00450684 -51.16229492 43.50901367 -51.56787109 44.02880859 C-69.68828224 67.40890221 -80.86123392 92.9575455 -88.375 121.5 C-93.14329252 114.34756122 -96.80281823 103.70150426 -96.20654297 95.05810547 C-95.09231852 89.53897249 -92.76587598 84.5648964 -90.375 79.5 C-89.68000207 77.8960828 -88.98865925 76.29057737 -88.30078125 74.68359375 C-74.92435612 44.25077957 -51.42776797 16.5712851 -20.375 3.5 C-13.5420237 0.98105145 -7.27137339 -0.05250089 0 0 Z " fill="#8B70AB" transform="translate(683.375,565.5)"/>
<path d="M0 0 C2.20968083 2.20968083 4.3630972 4.40964812 6.4375 6.75 C8.75134166 9.11513399 8.75134166 9.11513399 11.3125 9.625 C14.10063856 8.97659568 15.42764081 8.10955588 17.75 6.5 C22.1663811 3.57518912 25.80381914 2.98990129 31 4 C34.0625 5.4375 34.0625 5.4375 37 8 C37.61488281 8.52851563 38.22976562 9.05703125 38.86328125 9.6015625 C44.64141823 15.23384359 47.2012986 21.69651714 50.14233398 29.0402832 C55.77963203 43.07332147 63.41706607 49.98248164 76.91015625 56.73828125 C83.44266939 59.40579294 89.49159602 60.22316545 96.5 60.375 C112.70543588 61.02894791 126.40941819 64.69762955 137.87890625 76.6640625 C139.82099632 78.8028652 141.69830834 80.98090579 143.5625 83.1875 C150.06812636 90.67566947 158.06326346 96.17502415 168.16967773 97.2255249 C174.23191461 97.5837994 180.30416266 97.56628346 186.375 97.5625 C205.7544621 97.58848248 226.32271163 98.38274144 241 113 C245.22391427 118.50020492 247.14501494 123.06945913 247.1875 130.0625 C247.20167969 131.12597656 247.21585938 132.18945312 247.23046875 133.28515625 C247 136 247 136 245 138 C244.84144531 137.154375 244.68289063 136.30875 244.51953125 135.4375 C242.57487526 125.98281895 239.97133404 118.60723907 232.27734375 112.4453125 C221.29979487 105.47842899 209.69361677 102.61292739 196.8828125 102.9453125 C194.95703843 102.97060456 193.0312568 102.99532651 191.10546875 103.01953125 C188.11482295 103.06904038 185.12458676 103.12500924 182.13427734 103.19189453 C167.23645557 103.50333871 155.84372711 103.54066764 144.54296875 92.70703125 C141.16712016 89.11338598 138.03833989 85.34124865 134.90112305 81.53979492 C124.74767764 69.37411795 112.46276887 68.31082941 97.64038086 66.92138672 C84.84583715 65.69679299 73.09672664 63.1577093 62.625 55.1875 C62.04194092 54.75445557 61.45888184 54.32141113 60.8581543 53.87524414 C53.18014196 48.02998527 48.3173024 42.53404417 46 33 C41.8432084 34.80881308 40.39551707 37.16717269 38 41 C36 43 36 43 33.25 43.4375 C29.00158443 42.8655979 26.60664839 41.29338579 24 38 C22.32881576 34.77016918 21.14393191 31.44711624 20 28 C19.71125 27.16082031 19.4225 26.32164062 19.125 25.45703125 C18.39665888 23.31052593 17.69290053 21.15814241 17 19 C16.67 18.01 16.34 17.02 16 16 C13.5938814 15.26629088 13.5938814 15.26629088 10.75 14.8125 C6.45228553 13.75623467 4.24590011 12.88442683 1.8125 9.125 C0.21687476 6.01410474 -0.55265468 3.53698998 0 0 Z " fill="#930C05" transform="translate(47,323)"/>
<path d="M0 0 C4.95091884 1.59993787 7.91605541 4.99960453 10.61328125 9.265625 C12.17578125 12.703125 12.17578125 12.703125 11.92578125 15.140625 C11.55453125 15.9140625 11.55453125 15.9140625 11.17578125 16.703125 C10.61890625 15.754375 10.06203125 14.805625 9.48828125 13.828125 C7.42522442 10.68346256 7.42522442 10.68346256 4.80078125 9.078125 C2.04750483 8.45654417 2.04750483 8.45654417 -0.82421875 9.953125 C-8.89300725 16.19823402 -10.78181902 28.6811291 -13.32421875 38.015625 C-22.16392944 70.21296204 -22.16392944 70.21296204 -32.734375 76.9140625 C-36.98854281 78.52030904 -41.37020194 78.29785584 -45.82421875 77.703125 C-51.73947786 74.5841702 -53.09723424 70.32605814 -55.16015625 64.12890625 C-55.82421875 61.703125 -55.82421875 61.703125 -55.82421875 59.703125 C-54.98890625 60.13625 -54.98890625 60.13625 -54.13671875 60.578125 C-53.37359375 60.949375 -52.61046875 61.320625 -51.82421875 61.703125 C-51.06109375 62.095 -50.29796875 62.486875 -49.51171875 62.890625 C-45.84748809 63.99841567 -43.51365919 63.69136798 -39.82421875 62.703125 C-27.63649872 53.12705926 -23.39855123 35.08534577 -19.35986328 20.87475586 C-12.65758417 -2.29751108 -12.65758417 -2.29751108 0 0 Z " fill="#8569A6" transform="translate(674.82421875,640.296875)"/>
<path d="M0 0 C6.6513191 3.42067839 10.00892818 8.11259232 12.421875 14.97265625 C12.61265625 15.64167969 12.8034375 16.31070313 13 17 C13.26425781 17.78375 13.52851562 18.5675 13.80078125 19.375 C14.08814222 23.16140338 12.56036411 24.8372583 10.4375 27.9375 C1.81432787 41.17628629 -2.85753093 56.41674229 -8.03710938 71.24853516 C-8.79845925 73.42409627 -9.57601918 75.59398411 -10.359375 77.76171875 C-11.99535169 82.57526554 -13.06589178 87.18448247 -13.65234375 92.23046875 C-13.76465332 93.16987305 -13.87696289 94.10927734 -13.99267578 95.07714844 C-14.20072598 96.93784778 -14.37912111 98.80218331 -14.52294922 100.66894531 C-15.02599591 105.39174924 -15.65346842 108.24805451 -19.2734375 111.48046875 C-26.5499805 116.79761827 -35.0429395 119.30920855 -44 118 C-48.45141417 116.97582502 -52.8288403 115.88111124 -57 114 C-57.33 113.01 -57.66 112.02 -58 111 C-57.27296875 110.86464844 -56.5459375 110.72929688 -55.796875 110.58984375 C-39.3242485 107.06301218 -27.32269996 97.17612757 -18.25 83.25 C-2.73609289 58.27847158 4.17901489 29.2531042 0 0 Z " fill="#2FA190" transform="translate(71,534)"/>
<path d="M0 0 C5.74250774 4.83455477 5.74250774 4.83455477 6.23828125 8.9140625 C6.50982528 16.26663932 5.22473882 21.60271927 0.96484375 27.6640625 C-2.25154307 31.05990438 -5.61841987 34.42317865 -10.42578125 34.90234375 C-15.0528769 35.02244596 -18.28269301 35.01342043 -22.53515625 33.0390625 C-27.25165816 28.55838568 -28.7737079 23.68801257 -29.21484375 17.3203125 C-28.81575047 11.42067275 -26.26570457 6.64900893 -21.87109375 2.73828125 C-15.37652205 -1.81226314 -7.27237521 -4.77380484 0 0 Z " fill="#3FBCA9" transform="translate(542.03515625,714.3359375)"/>
<path d="M0 0 C2.54989043 3.82483565 3.74993066 7.71784599 5.1875 12.0625 C5.49429687 12.98933594 5.80109375 13.91617188 6.1171875 14.87109375 C16.37500966 46.4400648 24.18280173 79.42959064 29.52905273 112.1862793 C30.26781121 116.60006437 31.13875108 120.98583465 32.03125 125.37109375 C32.79803192 129.30671931 33.13647002 132.99274402 33 137 C32.29875 136.67 31.5975 136.34 30.875 136 C27.73179694 134.90671198 25.30205508 134.92682426 22 135 C20.90042888 127.58270463 19.87814202 120.1641693 18.9921875 112.71875 C14.99021968 79.3478596 9.6523447 46.14802227 2.08251953 13.38891602 C1.80778809 12.19580811 1.53305664 11.0027002 1.25 9.7734375 C1.00765625 8.74653809 0.7653125 7.71963867 0.515625 6.66162109 C0 4 0 4 0 0 Z " fill="#1E8C7B" transform="translate(463,566)"/>
<path d="M0 0 C3.03768119 2.46718985 4.76020671 5.28062012 6 9 C7.01548952 22.40113217 7.01548952 22.40113217 4.25 26.75 C0.69230769 30.30769231 0.69230769 30.30769231 -2 31 C-6.847876 30.91022452 -10.10060387 29.93172583 -13.7109375 26.58203125 C-16.91164276 22.65389298 -17.86301183 18.32421896 -18.375 13.375 C-17.80253972 8.22285751 -16.2881779 5.162502 -12.4375 1.6875 C-8.21243691 -1.23754368 -4.92874183 -1.55793564 0 0 Z " fill="#3FBCA9" transform="translate(519,824)"/>
<path d="M0 0 C4.40830916 2.16407904 7.12843553 4.42506462 9 9 C9.54067915 13.86611237 9.54236245 15.97338536 7.25 20.3125 C3.50353066 24.78744949 0.58771014 26.7558764 -5.3125 27.3125 C-10.59592627 26.86475201 -13.41484093 24.79651361 -16.875 20.875 C-18.57460974 16.53155289 -18.90610381 12.58759645 -18 8 C-13.53083023 0.41471185 -8.46962759 -0.93673301 0 0 Z " fill="#204406" transform="translate(254,291)"/>
<path d="M0 0 C7.08954783 0.97336005 12.26594863 2.70545944 18 7 C18.59554688 7.42023438 19.19109375 7.84046875 19.8046875 8.2734375 C25.30638868 12.50363441 28.66129952 17.99199195 32 24 C32.43828125 24.78246094 32.8765625 25.56492187 33.328125 26.37109375 C37.31774011 34.70152248 37.42759506 44.53597465 35.1171875 53.37890625 C31.00508127 64.04042672 24.85087373 71.30391655 15 77 C14.34 76.67 13.68 76.34 13 76 C14.485 75.505 14.485 75.505 16 75 C17.05700974 73.15762607 17.05700974 73.15762607 18 71 C18.96656655 69.61611363 19.9466077 68.24157411 20.9375 66.875 C28.11881225 56.00646142 28.65361274 43.16247061 26.37890625 30.55859375 C22.85851665 18.55797676 14.88299566 9.08902626 4.09765625 2.91015625 C2.7554855 2.22485966 1.38146226 1.60217586 0 1 C0 0.67 0 0.34 0 0 Z " fill="#C2ADDC" transform="translate(292,259)"/>
<path d="M0 0 C2.5549383 1.68088046 3.67561527 2.93064895 4.56640625 5.8671875 C5.20471554 9.42828145 5.24116614 11.45737619 3.75 14.8125 C0.65158273 18.68552158 -1.18643363 20.67120259 -6.33984375 21.2734375 C-13.3053783 21.54577419 -13.3053783 21.54577419 -16.625 18.9375 C-18.35598675 15.23948285 -18.56800402 13.04702864 -18 9 C-13.73413738 1.07768371 -8.94699415 -2.04054253 0 0 Z " fill="#3FBCA9" transform="translate(500,783)"/>
<path d="M0 0 C10.06223824 1.71576354 17.10862527 6.75774016 23 15 C27.61830236 23.04995759 28.19374205 32.19672159 25.875 41.0625 C23.14971516 49.27655946 17.69984786 54.76698274 11 60 C10.34 59.67 9.68 59.34 9 59 C9.38671875 58.55011719 9.7734375 58.10023438 10.171875 57.63671875 C17.09047574 49.09121932 19.82262579 40.50047188 19.4375 29.48828125 C18.11617994 18.9531133 12.78553761 11.02564781 5 4 C3.345552 2.97991197 1.68188358 1.97418961 0 1 C0 0.67 0 0.34 0 0 Z " fill="#C2ADDD" transform="translate(266,271)"/>
<path d="M0 0 C7.95777572 3.31033085 7.95777572 3.31033085 9.64453125 7.24609375 C9.89453125 10.93359375 9.89453125 10.93359375 9.64453125 14.24609375 C8.64453125 15.24609375 8.64453125 15.24609375 6.32788086 15.35961914 C5.32764893 15.35438232 4.32741699 15.34914551 3.296875 15.34375 C2.21728516 15.34052734 1.13769531 15.33730469 0.02539062 15.33398438 C-1.11091797 15.32560547 -2.24722656 15.31722656 -3.41796875 15.30859375 C-4.55814453 15.30408203 -5.69832031 15.29957031 -6.87304688 15.29492188 C-9.70057226 15.28309122 -12.52799515 15.26660785 -15.35546875 15.24609375 C-16.96394057 12.02915011 -16.96856024 8.72472153 -16.35546875 5.24609375 C-11.68989403 -0.52448551 -7.33265908 -2.34693732 0 0 Z " fill="#3FBCA9" transform="translate(495.35546875,884.75390625)"/>
<path d="M0 0 C2.9375 1.125 2.9375 1.125 5 3 C6.07366475 6.63394224 6.22401455 8.44824713 4.78515625 11.9921875 C4.21667969 12.94351563 3.64820312 13.89484375 3.0625 14.875 C2.49660156 15.84179688 1.93070313 16.80859375 1.34765625 17.8046875 C0.90292969 18.52914062 0.45820312 19.25359375 0 20 C-5.98654709 20.59865471 -5.98654709 20.59865471 -8.765625 18.95703125 C-10.93510476 17.16141815 -12.73071964 15.53856072 -14 13 C-14.4136968 8.34591099 -13.81070393 5.74760524 -11 2 C-7.28090573 -0.47939618 -4.30767204 -0.52901236 0 0 Z " fill="#224507" transform="translate(80,233)"/>
<path d="M0 0 C2.58584552 2.83608863 2.96647599 4.68710923 3.375 8.5 C2.97335498 12.2486869 2.3404622 14.07442224 0 17 C-3.21596441 19.32880181 -6.10878524 19.3242679 -10 19 C-13.34265205 17.79293121 -13.94704566 17.07943151 -16 14 C-16.44456411 9.40617081 -16.65588803 7.11743887 -14.3125 3.125 C-9.72053902 -1.09463982 -6.04437635 -1.67899343 0 0 Z " fill="#3FBCA9" transform="translate(572,867)"/>
<path d="M0 0 C3.47520434 2.78016347 3.93350723 4.5345506 4.5625 8.9375 C4.38020338 11.93969739 3.75891669 14.00838798 2.0625 16.5 C-1.51530358 19.42065598 -3.33516495 19.85013369 -7.83984375 19.51171875 C-11.53044369 18.63745366 -12.97047452 17.14249107 -15 14 C-15.69168794 11.16465107 -15.7317778 8.82992196 -15 6 C-10.71481507 0.69990285 -6.83220944 -1.16120556 0 0 Z " fill="#3FBCA9" transform="translate(483,562)"/>
<path d="M0 0 C2.0625 1.4375 2.0625 1.4375 3 4 C3.68290746 8.69280001 3.67600168 11.91839731 1.125 16 C-1.61737122 18.58105526 -2.51262207 18.95402095 -6.3125 19.3125 C-10.57536111 18.95124058 -12.01992054 17.98007946 -15 15 C-16.41000664 12.17998673 -16.24548451 10.12992745 -16 7 C-12.7636513 -0.11996713 -7.28545353 -1.06246197 0 0 Z " fill="#3FBCA9" transform="translate(527,674)"/>
<path d="M0 0 C3.25813633 1.04725811 4.53606177 2.57016768 6.1875 5.4375 C9.02455565 11.0137818 10.41740491 15.80952675 9 22 C7.32472471 24.40959199 5.49097402 26.52129655 3.4934082 28.66674805 C-3.77472749 36.70354377 -8.69159631 46.61572429 -14 56 C-14.33 55.34 -14.66 54.68 -15 54 C-13.85716213 51.40593943 -12.65254426 48.90172336 -11.375 46.375 C-4.19934384 31.60675352 0.27701704 16.57065569 0 0 Z " fill="#2FA190" transform="translate(312,554)"/>
<path d="M0 0 C4.63235294 2.26470588 4.63235294 2.26470588 6 5 C6.56818182 11.13636364 6.56818182 11.13636364 4.4375 14.375 C1.17938356 16.54707763 -1.09115592 16.93260614 -5 17 C-10.5862069 14.82758621 -10.5862069 14.82758621 -12 12 C-12.5801105 5.73480663 -12.5801105 5.73480663 -10.125 2.625 C-6.59539539 -0.07410941 -4.44160431 -0.34836112 0 0 Z " fill="#3FBCA9" transform="translate(546,789)"/>
<path d="M0 0 C2.4375 1.5625 2.4375 1.5625 4 4 C4.6875 7.375 4.6875 7.375 4 11 C1.37666712 14.34877968 -1.25489828 16.73027794 -5.52734375 17.390625 C-8.735878 16.88374755 -9.48614481 15.90608035 -11.375 13.3125 C-13.14436782 10.71345452 -13.96285699 9.40857313 -14.25 6.25 C-11.10731548 0.59316786 -6.15032622 -0.91115944 0 0 Z " fill="#3FBCA9" transform="translate(463,527)"/>
<path d="M0 0 C2.48405436 2.23564893 2.93906627 3.64201436 3.5 6.9375 C2.83493345 11.01103263 1.11683475 12.40263771 -2 15 C-4.84083641 16.42041821 -6.85477278 16.31452272 -10 16 C-13.02352411 13.93127298 -13.85787938 12.72639431 -14.5625 9.125 C-13.7768627 4.76034832 -12.12860285 3.12860285 -9 0 C-5.4314543 -1.18951523 -3.60804584 -0.97717908 0 0 Z " fill="#3FBCA9" transform="translate(520,611)"/>
<path d="M0 0 C2.0625 1.625 2.0625 1.625 3 4 C2.9312942 7.36658424 2.65508121 9.2401058 0.4375 11.8125 C-2.98833808 13.48149804 -6.17678566 14.2501899 -10 14 C-12.5625 12.4375 -12.5625 12.4375 -14 10 C-14.08025237 6.14788601 -13.46522708 4.53571604 -10.9375 1.625 C-6.85026453 -0.63602388 -4.63676055 -0.59829168 0 0 Z " fill="#3FBCA9" transform="translate(518,764)"/>
<path d="M0 0 C2.4375 2.125 2.4375 2.125 4 5 C4 8.63075827 3.41176127 10.42048414 1.3125 13.375 C-1.74960784 15.52675145 -3.32427084 15.60011905 -7 15 C-9.875 13.375 -9.875 13.375 -12 11 C-12.6875 8.0625 -12.6875 8.0625 -12 5 C-8.33478156 0.98571314 -5.50419063 -1.19656318 0 0 Z " fill="#3FBCA9" transform="translate(560,756)"/>
<path d="M0 0 C2 1.6875 2 1.6875 3 4 C2.86569161 6.75332199 2.32553566 8.44467446 0.9375 10.8125 C-2.36716375 12.83793908 -5.18034955 12.36377623 -9 12 C-11 9 -11 9 -10.8125 6 C-9.1309956 -0.20863163 -6.26221875 -0.78277734 0 0 Z " fill="#3FBCA9" transform="translate(567,823)"/>
<path d="M0 0 C2 1.75 2 1.75 3 4 C2.8529948 6.42558576 2.21403404 7.67894893 0.875 9.6875 C-1.97861395 11.68502977 -4.57179625 11.81634623 -8 12 C-8.99 11.34 -9.98 10.68 -11 10 C-11.54337501 6.42924991 -11.43720456 4.66455094 -9.4375 1.625 C-6.07941451 -0.61372366 -3.95254396 -0.57491549 0 0 Z " fill="#3FBCA9" transform="translate(459,498)"/>
<path d="M0 0 C1.77734375 1.38671875 1.77734375 1.38671875 3.77734375 4.38671875 C2.78734375 5.70671875 1.79734375 7.02671875 0.77734375 8.38671875 C0.09671875 7.78859375 -0.58390625 7.19046875 -1.28515625 6.57421875 C-8.8773132 0.92048485 -15.94297037 0.75996548 -25.22265625 0.38671875 C-24.22265625 -1.61328125 -24.22265625 -1.61328125 -21.84765625 -2.73828125 C-13.64928775 -4.71719778 -7.28113333 -4.38447993 0 0 Z " fill="#C2ADDB" transform="translate(95.22265625,215.61328125)"/>
<path d="M0 0 C1.8125 1.125 1.8125 1.125 3 3 C3.4375 6 3.4375 6 3 9 C1.4375 10.875 1.4375 10.875 -1 12 C-4.6875 12.25 -4.6875 12.25 -8 12 C-9 11 -9 11 -9.3125 7.6875 C-9 4 -9 4 -7.3125 1.5625 C-4.54994945 -0.30408821 -3.26764255 -0.58649994 0 0 Z " fill="#3FBCA9" transform="translate(503,858)"/>
<path d="M0 0 C4.875 0.875 4.875 0.875 6 2 C7.15556498 7.10192842 6.65098914 10.85289413 4.0625 15.4140625 C2.50164693 17.70554132 0.84916517 19.91604333 -0.8359375 22.1171875 C-2.54778381 24.39758927 -3.86079739 26.40862704 -5 29 C-5.66 29 -6.32 29 -7 29 C-7.45612269 24.43877315 -6.24399229 22.57154552 -3.5 19 C0.76240796 12.71359149 0.7399036 7.38729148 0 0 Z " fill="#CC9B19" transform="translate(306,447)"/>
<path d="M0 0 C3.5 0.25 3.5 0.25 5.5 2.25 C5.3640795 5.98781379 5.25664621 8.38526148 2.75 11.25 C-0.13300141 12.53133396 -1.54621561 12.26050518 -4.5 11.25 C-5.16 10.59 -5.82 9.93 -6.5 9.25 C-5.86923077 0.41923077 -5.86923077 0.41923077 0 0 Z " fill="#3FBCA9" transform="translate(478.5,812.75)"/>
<path d="M0 0 C2.375 0.6875 2.375 0.6875 3.375 1.6875 C3.625 4.625 3.625 4.625 3.375 7.6875 C-0.06607266 9.98154844 -1.59339809 9.95043056 -5.625 9.6875 C-5.955 9.3575 -6.285 9.0275 -6.625 8.6875 C-6.375 5.25 -6.375 5.25 -5.625 1.6875 C-2.625 -0.3125 -2.625 -0.3125 0 0 Z " fill="#3FBCA9" transform="translate(538.625,661.3125)"/>
<path d="M0 0 C2.375 0.6875 2.375 0.6875 3.375 1.6875 C3.625 4.625 3.625 4.625 3.375 7.6875 C0.15126323 9.83665785 -0.89203674 10.07036803 -4.625 9.6875 C-5.285 9.0275 -5.945 8.3675 -6.625 7.6875 C-6.4375 4.6875 -6.4375 4.6875 -5.625 1.6875 C-2.625 -0.3125 -2.625 -0.3125 0 0 Z " fill="#3FBCA9" transform="translate(498.625,642.3125)"/>
<path d="M0 0 C0.33 1.32 0.66 2.64 1 4 C1.99 4.33 2.98 4.66 4 5 C4.8125 8.25 4.8125 8.25 5 12 C2.8125 14.4375 2.8125 14.4375 0 16 C-1.32 16 -2.64 16 -4 16 C-2.68 10.72 -1.36 5.44 0 0 Z " fill="#269786" transform="translate(485,745)"/>
<path d="M0 0 C0.7425 0.2475 1.485 0.495 2.25 0.75 C2.875 3.0625 2.875 3.0625 3.25 5.75 C2.26 7.235 2.26 7.235 1.25 8.75 C-2.375 8.9375 -2.375 8.9375 -5.75 8.75 C-6.5 6.5 -6.5 6.5 -6.75 3.75 C-4.64876805 0.67896869 -3.78845323 -0.34440484 0 0 Z " fill="#3FBCA9" transform="translate(578.75,710.25)"/>
<path d="M0 0 C2.9375 0.8125 2.9375 0.8125 4.9375 3.8125 C4.9375 4.8025 4.9375 5.7925 4.9375 6.8125 C0.6475 6.8125 -3.6425 6.8125 -8.0625 6.8125 C-5.20991036 -0.3189741 -5.20991036 -0.3189741 0 0 Z " fill="#3FBCA9" transform="translate(530.0625,893.1875)"/>
<path d="M0 0 C3.125 -0.1875 3.125 -0.1875 6 0 C6.66 1.65 7.32 3.3 8 5 C6.3125 7.0625 6.3125 7.0625 4 9 C1.25 8.75 1.25 8.75 -1 8 C-1.625 5.6875 -1.625 5.6875 -2 3 C-1.34 2.01 -0.68 1.02 0 0 Z " fill="#3FBCA9" transform="translate(520,867)"/>
<path d="M0 0 C1 1 1 1 1.1875 3.9375 C1 7 1 7 -1 9 C-4.125 8.625 -4.125 8.625 -7 8 C-7.6875 5.6875 -7.6875 5.6875 -8 3 C-5.92409036 -0.34452109 -3.73927021 -0.39360739 0 0 Z " fill="#3FBCA9" transform="translate(469,846)"/>
<path d="M0 0 C2.625 0.375 2.625 0.375 5 1 C5.625 3.375 5.625 3.375 6 6 C4 8 4 8 1.4375 8.1875 C-1 8 -1 8 -2 7 C-2.1875 4.5625 -2.1875 4.5625 -2 2 C-1.34 1.34 -0.68 0.68 0 0 Z " fill="#F2F4F1" transform="translate(251,297)"/>
<path d="M0 0 C4.875 0.875 4.875 0.875 6 2 C6.1875 4.9375 6.1875 4.9375 6 8 C5.34 8.66 4.68 9.32 4 10 C3.01 10 2.02 10 1 10 C-0.60725635 6.78548731 -0.05748185 3.56387464 0 0 Z " fill="#3FBCA9" transform="translate(492,673)"/>
<path d="M0 0 C0.78375 0.04125 1.5675 0.0825 2.375 0.125 C3 2.5 3 2.5 3.375 5.125 C1.375 7.125 1.375 7.125 -1.25 7.25 C-2.03375 7.20875 -2.8175 7.1675 -3.625 7.125 C-4.25 4.75 -4.25 4.75 -4.625 2.125 C-2.625 0.125 -2.625 0.125 0 0 Z " fill="#3FBCA9" transform="translate(545.625,850.875)"/>
<path d="M0 0 C1.2065625 0.0309375 1.2065625 0.0309375 2.4375 0.0625 C3.125 2.375 3.125 2.375 3.4375 5.0625 C2.25 6.9375 2.25 6.9375 0.4375 8.0625 C-1.75 7.75 -1.75 7.75 -3.5625 7.0625 C-3.60504356 5.06295254 -3.60330783 3.06208364 -3.5625 1.0625 C-2.5625 0.0625 -2.5625 0.0625 0 0 Z " fill="#3FBCA9" transform="translate(494.5625,584.9375)"/>
<path d="M0 0 C2.29633824 3.44450737 2.54016485 5.93812283 3 10 C-0.875 9.125 -0.875 9.125 -2 8 C-2.1875 5.0625 -2.1875 5.0625 -2 2 C-1.34 1.34 -0.68 0.68 0 0 Z " fill="#279887" transform="translate(490,674)"/>
<path d="M0 0 C3.37244652 3.99697365 6.71374722 8.27090179 9 13 C8.67 13.66 8.34 14.32 8 15 C5 14 5 14 3.61328125 11.6015625 C3.18402344 10.61929688 2.75476563 9.63703125 2.3125 8.625 C1.87550781 7.64789062 1.43851563 6.67078125 0.98828125 5.6640625 C0 3 0 3 0 0 Z " fill="#8D73AC" transform="translate(848,539)"/>
<path d="M0 0 C2.0625 0.4375 2.0625 0.4375 4 1 C4 2.65 4 4.3 4 6 C2.125 6.625 2.125 6.625 0 7 C-0.66 6.34 -1.32 5.68 -2 5 C-1.46428571 1.46428571 -1.46428571 1.46428571 0 0 Z " fill="#DDE3D9" transform="translate(75,236)"/>
<path d="M0 0 C2.2578125 0.16015625 2.2578125 0.16015625 5 1 C7.0546875 3.43359375 7.0546875 3.43359375 8.875 6.4375 C9.49117187 7.42621094 10.10734375 8.41492188 10.7421875 9.43359375 C11.15726563 10.28050781 11.57234375 11.12742187 12 12 C11.67 12.66 11.34 13.32 11 14 C9.53998252 12.23055495 8.08204407 10.45939429 6.625 8.6875 C5.81289063 7.70136719 5.00078125 6.71523438 4.1640625 5.69921875 C2 3 2 3 0 0 Z " fill="#876FA7" transform="translate(780,543)"/>
<path d="M0 0 C7 8.44827586 7 8.44827586 7 12 C6.01 12 5.02 12 4 12 C3.32645501 10.56570999 2.66140299 9.12742943 2 7.6875 C1.62875 6.88699219 1.2575 6.08648438 0.875 5.26171875 C0 3 0 3 0 0 Z " fill="#8A6AA9" transform="translate(774,579)"/>
<path d="M0 0 C3.08089673 2.77280706 4.68775452 5.06326356 6 9 C4.68 8.67 3.36 8.34 2 8 C1.34 5.36 0.68 2.72 0 0 Z " fill="#8A6DAD" transform="translate(712,629)"/>
<path d="M0 0 C2.31 0.66 4.62 1.32 7 2 C6.67 2.99 6.34 3.98 6 5 C3.08482708 3.92598892 1.22189824 3.22189824 -1 1 C-0.67 0.67 -0.34 0.34 0 0 Z " fill="#9D84B9" transform="translate(69,256)"/>
</svg>
